<?xml version="1.0" encoding="iso-8859-1"?>
<!-- Generator: Adobe Illustrator 19.0.0, SVG Export Plug-In . SVG Version: 6.00 Build 0)  -->
<svg version="1.1" id="Capa_1" xmlns="http://www.w3.org/2000/svg" xmlns:xlink="http://www.w3.org/1999/xlink" x="0px" y="0px"
	 viewBox="0 0 508.1 508.1" style="enable-background:new 0 0 508.1 508.1;" xml:space="preserve">
<circle style="fill:#FFD15C;" cx="254" cy="254.05" r="80.8"/>
<circle style="fill:#F8B64C;" cx="254" cy="254.05" r="66"/>
<path style="fill:#FFD15C;" d="M249.9,281.75v-24.5c-7.7-2.2-13.3-5.5-16.8-9.9c-3.6-4.4-5.4-9.8-5.4-16.1c0-6.4,2-11.8,6.1-16.1
	c4-4.4,9.4-6.9,16.1-7.5v-5.8h8.5v5.8c6.2,0.7,11.1,2.9,14.8,6.4c3.7,3.5,6,8.2,7,14l-14.8,1.9c-0.9-4.6-3.2-7.7-7-9.4v22.9
	c9.4,2.5,15.8,5.8,19.1,9.9c3.3,4.1,5.1,9.2,5.1,15.5c0,7.1-2.1,13-6.4,17.9c-4.3,4.8-10.2,7.8-17.8,8.9v11h-8.5v-10.7
	c-6.8-0.8-12.2-3.3-16.5-7.6c-4.2-4.2-6.9-10.2-8.1-17.9l15.3-1.6c0.6,3.1,1.8,5.8,3.5,8.1C245.9,279.05,247.8,280.75,249.9,281.75z
	 M249.9,220.25c-2.3,0.8-4.1,2.1-5.5,4s-2,3.9-2,6.2c0,2.1,0.6,4,1.9,5.8c1.2,1.8,3.1,3.2,5.7,4.3v-20.3H249.9z M258.4,282.55
	c2.9-0.5,5.3-1.9,7.1-4.1c1.8-2.2,2.8-4.7,2.8-7.6c0-2.6-0.8-4.9-2.3-6.8s-4.1-3.3-7.6-4.4V282.55z"/>
<path style="fill:#84DBFF;" d="M426.8,320.05l-34.7-34.9c-16.4,61-72,106-138.1,106c-55.3,0-103.3-31.6-127.1-77.6h-0.1
	c-3.8-7.4-7-15-9.6-23.1h44.9l-81-81.4L0,290.55h45.9c1.6,7.9,3.7,15.6,6.1,23.1l0,0c27.8,85.1,107.8,146.9,202,146.9
	c104.9,0,192.1-76.6,209.1-176.8L426.8,320.05z"/>
<path style="fill:#FF7058;" d="M462.1,217.55c-1.6-7.9-3.7-15.6-6.1-23.1l0,0c-27.8-85.1-107.8-146.9-202-146.9
	c-105,0-192.2,76.6-209.2,176.8l36.4-36.3l34.7,34.9c16.4-61,72-106,138.1-106c55.3,0,103.3,31.6,127.1,77.6h0.1
	c3.8,7.4,7,15,9.6,23.1h-44.9l81,81.4l81.2-81.4h-46V217.55z"/>
<g>
</g>
<g>
</g>
<g>
</g>
<g>
</g>
<g>
</g>
<g>
</g>
<g>
</g>
<g>
</g>
<g>
</g>
<g>
</g>
<g>
</g>
<g>
</g>
<g>
</g>
<g>
</g>
<g>
</g>
</svg>
